# xmcd CD database file
#
# Track frame offsets:
#	150
#	18082
#	36926
#	53938
#	78543
#	93781
#	107704
#	130192
#	148657
#	167979
#	184760
#	197906
#
# Disc length: 2916 seconds
#
# Revision: 0
# Processed by: cddbd v1.5.2PL0 Copyright (c) Steve Scherf et al.
# Submitted via: CDex 1.51
#
DISCID=a10b620c
DTITLE=Lady Antebellum - Need You Now
DYEAR=2009
DGENRE=Country
TTITLE0=Need You Now
TTITLE1=Our Kind of Love
TTITLE2=American Honey
TTITLE3=Hello World
TTITLE4=Perfect Day
TTITLE5=Love This Pain
TTITLE6=When You Got a Good Thing
TTITLE7=Stars Tonight
TTITLE8=If I Knew Then
TTITLE9=Something 'Bout a Woman
TTITLE10=Ready to Love Again
TTITLE11=Need You Now (Bonus Track)
EXTD=YEAR: 2009
EXTT0=
EXTT1=
EXTT2=
EXTT3=
EXTT4=
EXTT5=
EXTT6=
EXTT7=
EXTT8=
EXTT9=
EXTT10=
EXTT11=
PLAYORDER=
